<?xml version="1.0" standalone="no"?>
<!DOCTYPE svg PUBLIC "-//W3C//DTD SVG 20010904//EN"
 "http://www.w3.org/TR/2001/REC-SVG-20010904/DTD/svg10.dtd">
<svg version="1.0" xmlns="http://www.w3.org/2000/svg"
 width="700.000000pt" height="700.000000pt" viewBox="0 0 700.000000 700.000000"
 preserveAspectRatio="xMidYMid meet">
<metadata>
Created by potrace 1.11, written by Peter Selinger 2001-2013
</metadata>
<g transform="translate(0.000000,700.000000) scale(0.100000,-0.100000)"
fill="#000000" stroke="none">
<path d="M2499 6973 c-19 -15 -36 -30 -39 -33 -3 -3 -39 -32 -80 -65 -41 -33
-86 -70 -100 -82 -14 -12 -214 -177 -445 -368 -532 -438 -605 -499 -632 -521
-12 -11 -36 -30 -53 -44 -18 -14 -37 -30 -44 -35 -6 -6 -45 -38 -86 -72 -196
-161 -228 -188 -265 -218 -123 -102 -426 -352 -465 -383 -89 -73 -93 -78 -78
-93 7 -8 42 -50 78 -94 35 -44 67 -82 70 -85 3 -3 27 -31 52 -63 l47 -57 58
48 c32 26 80 65 107 87 l48 39 -7 -88 c-3 -48 -8 -97 -10 -109 -2 -12 -6 -56
-10 -97 -3 -41 -7 -88 -9 -105 -2 -16 -7 -66 -11 -110 -3 -44 -8 -91 -10 -105
-2 -14 -6 -59 -10 -100 -4 -41 -8 -86 -10 -100 -2 -14 -7 -61 -10 -105 -7 -83
-8 -88 -19 -195 -9 -89 -16 -167 -21 -215 -3 -42 -13 -141 -20 -210 -2 -22 -7
-75 -11 -118 l-7 -77 494 2 493 3 2 25 c1 14 4 57 8 95 4 39 9 95 12 125 3 30
7 71 9 90 2 19 7 71 11 115 3 44 8 87 9 96 2 9 6 52 10 95 3 43 8 95 10 114 4
30 10 94 20 200 1 14 6 59 10 100 8 84 10 113 20 220 3 41 9 88 12 104 l5 28
77 -6 c42 -3 85 -8 96 -10 11 -2 58 -7 105 -11 47 -3 99 -8 115 -9 17 -2 68
-7 115 -11 47 -4 92 -9 101 -10 8 -2 53 -6 100 -10 46 -4 91 -9 101 -10 9 -2
52 -6 95 -9 79 -6 163 -14 218 -21 31 -4 183 -18 200 -20 6 0 10 -16 9 -35 -2
-50 -15 -202 -19 -220 -2 -8 -7 -55 -10 -104 -4 -50 -8 -98 -10 -107 -2 -9 -6
-54 -10 -99 -4 -45 -8 -89 -10 -98 -1 -10 -6 -60 -10 -112 -4 -52 -9 -103 -11
-113 -2 -10 -6 -53 -9 -95 -3 -42 -8 -88 -10 -102 -2 -14 -7 -59 -10 -100 -4
-41 -8 -79 -8 -85 -1 -6 61 -11 166 -13 92 -1 167 -4 167 -7 0 -2 -11 -24 -23
-47 -13 -24 -73 -137 -132 -253 -60 -115 -120 -231 -133 -258 -14 -26 -23 -49
-21 -51 2 -2 42 -7 89 -10 47 -4 101 -9 120 -11 44 -6 107 -13 185 -20 33 -3
76 -8 95 -10 19 -2 62 -7 95 -10 33 -3 71 -8 85 -10 14 -2 61 -6 105 -10 44
-4 88 -9 98 -10 10 -3 17 3 18 13 1 9 3 26 4 37 1 11 5 55 9 98 4 43 9 88 11
100 2 12 6 59 10 103 3 45 8 93 10 105 2 13 6 60 10 104 3 44 8 94 10 110 4
27 10 96 20 209 13 145 16 175 20 206 2 19 7 60 9 90 3 30 8 80 11 110 3 30 7
82 10 115 3 33 7 78 10 100 3 22 7 67 10 100 3 33 7 80 10 105 2 25 7 74 10
110 4 36 8 81 10 100 6 51 17 173 18 188 1 21 15 13 44 -25 15 -21 40 -51 56
-68 15 -16 37 -45 50 -62 12 -18 26 -33 31 -33 8 0 92 63 106 80 3 3 51 44
108 89 56 46 102 85 102 87 0 1 -6 9 -13 16 -7 7 -40 47 -72 88 -33 41 -62 77
-65 80 -3 3 -82 97 -175 210 -93 113 -259 313 -368 445 -109 132 -204 247
-210 255 -20 25 -150 183 -174 210 -11 14 -90 108 -173 210 -84 102 -162 196
-174 210 -11 14 -52 63 -91 110 -38 47 -78 94 -87 105 -9 11 -85 103 -169 205
-83 102 -153 186 -154 188 -1 2 -18 -10 -36 -25z"/>
<path d="M2003 4158 c-9 -16 -9 -17 -17 -114 -4 -44 -9 -92 -11 -109 -3 -16
-7 -61 -10 -100 -6 -79 -14 -166 -20 -210 -2 -16 -7 -66 -10 -110 -4 -44 -8
-91 -10 -104 -2 -12 -7 -60 -11 -105 -3 -44 -7 -85 -8 -91 -1 -6 93 -10 264
-10 258 0 265 1 266 20 3 37 14 160 19 195 2 19 7 62 10 95 10 117 26 280 30
315 9 74 18 187 19 234 1 54 5 52 -89 61 -27 2 -77 7 -110 10 -33 3 -76 8 -95
10 -19 2 -71 7 -115 10 -44 4 -83 9 -87 11 -4 2 -10 -1 -15 -8z"/>
<path d="M14 1395 l0 -1395 3490 0 3491 0 -1 1387 c-1 764 -2 1391 -3 1396 -1
4 -511 7 -1133 7 l-1133 0 -115 -111 c-63 -61 -145 -140 -183 -176 l-67 -65
120 -73 c66 -41 124 -75 128 -77 29 -13 282 -171 282 -176 0 -4 -50 -43 -111
-87 -147 -106 -303 -221 -619 -453 -91 -67 -289 -213 -440 -324 -151 -111
-369 -271 -483 -356 -115 -84 -211 -151 -214 -148 -3 2 13 107 36 233 23 125
43 240 46 255 3 16 7 40 10 56 3 15 16 90 30 167 14 77 28 151 31 165 37 203
57 320 53 323 -2 2 -135 69 -294 150 -351 176 -598 302 -613 311 -7 4 1 28 22
69 18 34 63 119 100 190 l67 127 -1249 0 -1248 0 0 -1395z"/>
</g>
</svg>
