<svg height="512pt" viewBox="0 0 511 512" width="512pt" xmlns="http://www.w3.org/2000/svg"><path d="m138.769531 277.957031h38.742188l6.464843-66.9375-38.386718-3.707031zm0 0"/><path d="m274.539062 329.644531 15.023438-155.640625 13.152344 15.925782 23.117187-19.089844-141.097656-170.839844-170.695313 140.738281 19.035157 23.160157 15.742187-12.9375-12.261718 126.996093h72.09375l9.980468-103.367187 98.070313 9.46875-9.066407 93.898437h24.71875l-23.285156 44.910157zm0 0"/><path d="m318.335938 333.699219 39.453124 23.679687-137.832031 101.367188 16.09375-88.613282-67.53125-34.191406 14.519531-28.003906h-182.539062v204.0625h510.578125v-204.0625h-165.84375zm0 0"/></svg>